<svg width="72" height="71" viewBox="0 0 72 71" fill="none" xmlns="http://www.w3.org/2000/svg">
<rect width="34" height="34" rx="5" transform="matrix(7.22136e-10 -1 -1 -4.28036e-10 34 34)" fill="#FF7F7F"/>
<rect x="-0.5" y="-0.5" width="33" height="33" rx="4.5" transform="matrix(7.22136e-10 -1 -1 -4.28036e-10 33 33)" stroke="black" stroke-opacity="0.25"/>
<rect width="34" height="34" rx="5" transform="matrix(7.16359e-10 -1 -1 -4.31488e-10 72 34)" fill="#FFBF7F"/>
<rect x="-0.5" y="-0.5" width="33" height="33" rx="4.5" transform="matrix(7.16359e-10 -1 -1 -4.31488e-10 71 33)" stroke="black" stroke-opacity="0.25"/>
<rect width="34" height="34" rx="5" transform="matrix(7.05078e-10 -1 -1 -4.38392e-10 34 71)" fill="#FFFF7F"/>
<rect x="-0.5" y="-0.5" width="33" height="33" rx="4.5" transform="matrix(7.05078e-10 -1 -1 -4.38392e-10 33 70)" stroke="black" stroke-opacity="0.25"/>
<rect width="34" height="34" rx="5" transform="matrix(6.13321e-10 -1 -1 -5.03978e-10 72 71)" fill="#7FFF7F"/>
<rect x="-0.5" y="-0.5" width="33" height="33" rx="4.5" transform="matrix(6.13321e-10 -1 -1 -5.03978e-10 71 70)" stroke="black" stroke-opacity="0.25"/>
</svg>
